{
  "accessors": [
    {
      "bufferView": 2,
      "componentType": 5126,
      "count": 2079,
      "max": [
        0.15479573607444763,
        0.1535375863313675,
        0.15511661767959595
      ],
      "min": [
        -0.1579352617263794,
        -0.15916568040847778,
        -0.1577087640762329
      ],
      "type": "VEC3"
    },
    {
      "bufferView": 2,
      "byteOffset": 24948,
      "componentType": 5126,
      "count": 2079,
      "max": [
        0.9990065693855286,
        0.9995393753051758,
        0.9997968673706055
      ],
      "min": [
        -0.9999338388442993,
        -0.9996733665466309,
        -0.9997490644454956
      ],
      "type": "VEC3"
    },
    {
      "bufferView": 3,
      "componentType": 5126,
      "count": 2079,
      "max": [
        0.9842521548271179,
        0.9962385892868042,
        0.9922844171524048,
        1.0
      ],
      "min": [
        -0.9998646974563599,
        -0.9997051954269409,
        -0.9931302070617676,
        -1.0
      ],
      "type": "VEC4"
    },
    {
      "bufferView": 1,
      "componentType": 5126,
      "count": 2079,
      "max": [
        0.9911597371101379,
        0.9883741736412048
      ],
      "min": [
        0.012275910004973412,
        0.011083215475082397
      ],
      "type": "VEC2"
    },
    {
      "bufferView": 1,
      "byteOffset": 16632,
      "componentType": 5126,
      "count": 2079,
      "max": [
        0.9911597371101379,
        0.9883741736412048
      ],
      "min": [
        0.012275910004973412,
        0.011083215475082397
      ],
      "type": "VEC2"
    },
    {
      "bufferView": 0,
      "componentType": 5125,
      "count": 9720,
      "type": "SCALAR"
    },
    {
      "bufferView": 2,
      "byteOffset": 49896,
      "componentType": 5126,
      "count": 651,
      "max": [
        1.1162018775939941,
        0.22737301886081696,
        -1.9610129594802856
      ],
      "min": [
        -1.07854425907135,
        -0.22737306356430054,
        -2.2558116912841797
      ],
      "type": "VEC3"
    },
    {
      "bufferView": 2,
      "byteOffset": 57708,
      "componentType": 5126,
      "count": 651,
      "max": [
        0.9999755620956421,
        0.9564521908760071,
        1.0
      ],
      "min": [
        -0.9999936819076538,
        -0.9564521908760071,
        -0.7942908406257629
      ],
      "type": "VEC3"
    },
    {
      "bufferView": 3,
      "byteOffset": 33264,
      "componentType": 5126,
      "count": 651,
      "max": [
        0.55923992395401,
        1.0,
        0.9563215374946594,
        1.0
      ],
      "min": [
        -0.5574364066123962,
        -1.0,
        -0.9563214778900146,
        1.0
      ],
      "type": "VEC4"
    },
    {
      "bufferView": 1,
      "byteOffset": 33264,
      "componentType": 5126,
      "count": 651,
      "max": [
        0.9871127009391785,
        0.5907463431358337
      ],
      "min": [
        0.6319236755371094,
        0.011757127940654755
      ],
      "type": "VEC2"
    },
    {
      "bufferView": 0,
      "byteOffset": 38880,
      "componentType": 5125,
      "count": 3024,
      "type": "SCALAR"
    },
    {
      "bufferView": 2,
      "byteOffset": 65520,
      "componentType": 5126,
      "count": 582,
      "max": [
        1.481479287147522,
        1.4814778566360474,
        2.4813191890716553
      ],
      "min": [
        -1.4814783334732056,
        -1.4814789295196533,
        -2.4813191890716553
      ],
      "type": "VEC3"
    },
    {
      "bufferView": 2,
      "byteOffset": 72504,
      "componentType": 5126,
      "count": 582,
      "max": [
        1.0,
        1.0,
        1.0
      ],
      "min": [
        -1.0,
        -1.0,
        -1.0
      ],
      "type": "VEC3"
    },
    {
      "bufferView": 3,
      "byteOffset": 43680,
      "componentType": 5126,
      "count": 582,
      "max": [
        0.9994646310806274,
        0.41362226009368896,
        0.0,
        1.0
      ],
      "min": [
        -0.9994839429855347,
        -0.4034099876880646,
        -0.9999997019767761,
        1.0
      ],
      "type": "VEC4"
    },
    {
      "bufferView": 1,
      "byteOffset": 38472,
      "componentType": 5126,
      "count": 582,
      "max": [
        0.9641702771186829,
        0.9801232218742371
      ],
      "min": [
        0.02883431315422058,
        0.022762570530176163
      ],
      "type": "VEC2"
    },
    {
      "bufferView": 0,
      "byteOffset": 50976,
      "componentType": 5125,
      "count": 3264,
      "type": "SCALAR"
    },
    {
      "bufferView": 2,
      "byteOffset": 79488,
      "componentType": 5126,
      "count": 559,
      "max": [
        0.9999997019767761,
        0.9999987483024597,
        1.0
      ],
      "min": [
        -0.9999990463256836,
        -0.9999994039535522,
        -1.0
      ],
      "type": "VEC3"
    },
    {
      "bufferView": 2,
      "byteOffset": 86196,
      "componentType": 5126,
      "count": 559,
      "max": [
        1.0,
        1.0,
        1.0
      ],
      "min": [
        -1.0,
        -1.0,
        -1.0
      ],
      "type": "VEC3"
    },
    {
      "bufferView": 3,
      "byteOffset": 52992,
      "componentType": 5126,
      "count": 559,
      "max": [
        1.0,
        1.0,
        0.04912598431110382,
        1.0
      ],
      "min": [
        -1.0,
        -1.0,
        -0.0491257980465889,
        1.0
      ],
      "type": "VEC4"
    },
    {
      "bufferView": 1,
      "byteOffset": 43128,
      "componentType": 5126,
      "count": 559,
      "max": [
        1.0000001192092896,
        1.0
      ],
      "min": [
        0.0,
        0.0
      ],
      "type": "VEC2"
    },
    {
      "bufferView": 1,
      "byteOffset": 47600,
      "componentType": 5126,
      "count": 559,
      "max": [
        1.0000001192092896,
        1.0
      ],
      "min": [
        0.0,
        0.0
      ],
      "type": "VEC2"
    },
    {
      "bufferView": 0,
      "byteOffset": 64032,
      "componentType": 5125,
      "count": 2880,
      "type": "SCALAR"
    }
  ],
  "asset": {
    "extras": {
      "author": "assetfactory (https://sketchfab.com/assetfactory)",
      "license": "SKETCHFAB Standard (https://sketchfab.com/licenses)",
      "source": "https://sketchfab.com/3d-models/pack-of-sports-balls-ad17ea6df79c4e64acd9617a1c53c880",
      "title": "Pack of sports balls"
    },
    "generator": "Sketchfab-16.33.0",
    "version": "2.0"
  },
  "bufferViews": [
    {
      "buffer": 0,
      "byteLength": 75552,
      "name": "floatBufferViews",
      "target": 34963
    },
    {
      "buffer": 0,
      "byteLength": 52072,
      "byteOffset": 75552,
      "byteStride": 8,
      "name": "floatBufferViews",
      "target": 34962
    },
    {
      "buffer": 0,
      "byteLength": 92904,
      "byteOffset": 127624,
      "byteStride": 12,
      "name": "floatBufferViews",
      "target": 34962
    },
    {
      "buffer": 0,
      "byteLength": 61936,
      "byteOffset": 220528,
      "byteStride": 16,
      "name": "floatBufferViews",
      "target": 34962
    }
  ],
  "buffers": [
    {
      "byteLength": 282464,
      "uri": "scene.bin"
    }
  ],
  "images": [
    {
      "uri": "textures/ball_baseColor.jpeg"
    },
    {
      "uri": "textures/ball_normal.png"
    },
    {
      "uri": "textures/AmericanFb_baseColor.jpeg"
    },
    {
      "uri": "textures/AmericanFb_metallicRoughness.png"
    },
    {
      "uri": "textures/AmericanFb_normal.png"
    },
    {
      "uri": "textures/Basketball_baseColor.jpeg"
    },
    {
      "uri": "textures/Basketball_metallicRoughness.png"
    },
    {
      "uri": "textures/Basketball_normal.png"
    }
  ],
  "materials": [
    {
      "doubleSided": true,
      "name": "ball",
      "normalTexture": {
        "index": 1
      },
      "pbrMetallicRoughness": {
        "baseColorTexture": {
          "index": 0
        },
        "metallicFactor": 0.0,
        "roughnessFactor": 0.1462365228
      }
    },
    {
      "doubleSided": true,
      "name": "AmericanFb",
      "normalTexture": {
        "index": 4
      },
      "occlusionTexture": {
        "index": 3
      },
      "pbrMetallicRoughness": {
        "baseColorTexture": {
          "index": 2
        },
        "metallicFactor": 0.0,
        "metallicRoughnessTexture": {
          "index": 3
        }
      }
    },
    {
      "doubleSided": true,
      "name": "Basketball",
      "normalTexture": {
        "index": 7
      },
      "occlusionTexture": {
        "index": 6
      },
      "pbrMetallicRoughness": {
        "baseColorTexture": {
          "index": 5
        },
        "metallicFactor": 0.0,
        "metallicRoughnessTexture": {
          "index": 6
        }
      }
    }
  ],
  "meshes": [
    {
      "name": "Ball_ball_0",
      "primitives": [
        {
          "attributes": {
            "NORMAL": 1,
            "POSITION": 0,
            "TANGENT": 2,
            "TEXCOORD_0": 3,
            "TEXCOORD_1": 4
          },
          "indices": 5,
          "material": 0,
          "mode": 4
        }
      ]
    },
    {
      "name": "Plane.001_AmericanFb_0",
      "primitives": [
        {
          "attributes": {
            "NORMAL": 7,
            "POSITION": 6,
            "TANGENT": 8,
            "TEXCOORD_0": 9
          },
          "indices": 10,
          "material": 1,
          "mode": 4
        }
      ]
    },
    {
      "name": "Sphere_AmericanFb_0",
      "primitives": [
        {
          "attributes": {
            "NORMAL": 12,
            "POSITION": 11,
            "TANGENT": 13,
            "TEXCOORD_0": 14
          },
          "indices": 15,
          "material": 1,
          "mode": 4
        }
      ]
    },
    {
      "name": "Sphere.002_Basketball_0",
      "primitives": [
        {
          "attributes": {
            "NORMAL": 17,
            "POSITION": 16,
            "TANGENT": 18,
            "TEXCOORD_0": 19,
            "TEXCOORD_1": 20
          },
          "indices": 21,
          "material": 2,
          "mode": 4
        }
      ]
    }
  ],
  "nodes": [
    {
      "children": [
        1
      ],
      "matrix": [
        1.0,
        0.0,
        0.0,
        0.0,
        0.0,
        2.220446049250313e-16,
        -1.0,
        0.0,
        0.0,
        1.0,
        2.220446049250313e-16,
        0.0,
        0.0,
        0.0,
        0.0,
        1.0
      ],
      "name": "Sketchfab_model"
    },
    {
      "children": [
        2
      ],
      "matrix": [
        1.0,
        0.0,
        0.0,
        0.0,
        0.0,
        0.0,
        1.0,
        0.0,
        0.0,
        -1.0,
        0.0,
        0.0,
        0.0,
        0.0,
        0.0,
        1.0
      ],
      "name": "3Balls_v1.fbx"
    },
    {
      "children": [
        3,
        5,
        7,
        9
      ],
      "name": "RootNode"
    },
    {
      "children": [
        4
      ],
      "matrix": [
        563.211181640625,
        0.0,
        0.0,
        0.0,
        0.0,
        -9.175874835396679e-05,
        -563.2111816406176,
        0.0,
        0.0,
        563.2111816406176,
        -9.175874835396679e-05,
        0.0,
        261.1590270996094,
        -10.492002487182617,
        0.0,
        1.0
      ],
      "name": "Ball"
    },
    {
      "mesh": 0,
      "name": "Ball_ball_0"
    },
    {
      "children": [
        6
      ],
      "matrix": [
        55.33082962036133,
        0.0,
        0.0,
        0.0,
        0.0,
        55.33082962036127,
        2.4185875743375495e-06,
        0.0,
        0.0,
        -2.4185875743375495e-06,
        55.33082962036127,
        0.0,
        -298.609130859375,
        -17.361732482910156,
        192.30343627929688,
        1.0
      ],
      "name": "Plane.001"
    },
    {
      "mesh": 1,
      "name": "Plane.001_AmericanFb_0"
    },
    {
      "children": [
        8
      ],
      "matrix": [
        4.177361425534258e-06,
        -55.33082962036107,
        3.297973265201727e-06,
        0.0,
        -1.561048499357181e-05,
        -3.2979744446492987e-06,
        -55.33082962035903,
        0.0,
        55.33082962035897,
        4.177360494876408e-06,
        -1.5610485242361535e-05,
        0.0,
        -298.609130859375,
        -17.361732482910156,
        0.020569562911987305,
        1.0
      ],
      "name": "Sphere"
    },
    {
      "mesh": 2,
      "name": "Sphere_AmericanFb_0"
    },
    {
      "children": [
        10
      ],
      "matrix": [
        97.26144409179688,
        0.0,
        0.0,
        0.0,
        0.0,
        -1.5845900550066174e-05,
        -97.2614440917956,
        0.0,
        0.0,
        97.2614440917956,
        -1.5845900550066174e-05,
        0.0,
        0.0,
        -2.530717134475708,
        0.0,
        1.0
      ],
      "name": "Sphere.002"
    },
    {
      "mesh": 3,
      "name": "Sphere.002_Basketball_0"
    }
  ],
  "samplers": [
    {
      "magFilter": 9729,
      "minFilter": 9987,
      "wrapS": 10497,
      "wrapT": 10497
    }
  ],
  "scene": 0,
  "scenes": [
    {
      "name": "Sketchfab_Scene",
      "nodes": [
        0
      ]
    }
  ],
  "textures": [
    {
      "sampler": 0,
      "source": 0
    },
    {
      "sampler": 0,
      "source": 1
    },
    {
      "sampler": 0,
      "source": 2
    },
    {
      "sampler": 0,
      "source": 3
    },
    {
      "sampler": 0,
      "source": 4
    },
    {
      "sampler": 0,
      "source": 5
    },
    {
      "sampler": 0,
      "source": 6
    },
    {
      "sampler": 0,
      "source": 7
    }
  ]
}
