{
  "accessors": [
    {
      "bufferView": 2,
      "componentType": 5126,
      "count": 1403,
      "max": [
        1.5062401294708252,
        3.7578699588775635,
        1.0911600589752197
      ],
      "min": [
        -1.5121300220489502,
        0.5036560297012329,
        -1.124690055847168
      ],
      "type": "VEC3"
    },
    {
      "bufferView": 2,
      "byteOffset": 16836,
      "componentType": 5126,
      "count": 1403,
      "max": [
        0.9970294833183289,
        0.9999918937683105,
        0.9998928904533386
      ],
      "min": [
        -0.9970296025276184,
        -0.9999997615814209,
        -0.9999546408653259
      ],
      "type": "VEC3"
    },
    {
      "bufferView": 1,
      "componentType": 5126,
      "count": 1403,
      "max": [
        1.0929900407791138,
        0.9964569807052612
      ],
      "min": [
        0.0008670000243000686,
        0.006537000183016062
      ],
      "type": "VEC2"
    },
    {
      "bufferView": 0,
      "componentType": 5125,
      "count": 4206,
      "type": "SCALAR"
    },
    {
      "bufferView": 2,
      "byteOffset": 33672,
      "componentType": 5126,
      "count": 23,
      "max": [
        0.880827009677887,
        0.4950299859046936,
        0.7706739902496338
      ],
      "min": [
        -0.880827009677887,
        0.0,
        -0.7628179788589478
      ],
      "type": "VEC3"
    },
    {
      "bufferView": 2,
      "byteOffset": 33948,
      "componentType": 5126,
      "count": 23,
      "max": [
        0.9819803833961487,
        1.0,
        1.0
      ],
      "min": [
        -0.9819803833961487,
        0.0,
        -0.9449111223220825
      ],
      "type": "VEC3"
    },
    {
      "bufferView": 1,
      "byteOffset": 11224,
      "componentType": 5126,
      "count": 23,
      "max": [
        0.9976300001144409,
        0.9007499814033508
      ],
      "min": [
        0.39957600831985474,
        0.004749000072479248
      ],
      "type": "VEC2"
    },
    {
      "bufferView": 0,
      "byteOffset": 16824,
      "componentType": 5125,
      "count": 60,
      "type": "SCALAR"
    },
    {
      "bufferView": 2,
      "byteOffset": 34224,
      "componentType": 5126,
      "count": 132,
      "max": [
        0.5215910077095032,
        2.269429922103882,
        0.3933280110359192
      ],
      "min": [
        -0.39181798696517944,
        0.6995319724082947,
        -0.4287889897823334
      ],
      "type": "VEC3"
    },
    {
      "bufferView": 2,
      "byteOffset": 35808,
      "componentType": 5126,
      "count": 132,
      "max": [
        0.8347370028495789,
        0.9998977780342102,
        0.9705716371536255
      ],
      "min": [
        -0.7266043424606323,
        -0.9064851403236389,
        -0.9446996450424194
      ],
      "type": "VEC3"
    },
    {
      "bufferView": 1,
      "byteOffset": 11408,
      "componentType": 5126,
      "count": 132,
      "max": [
        0.9487820267677307,
        22.365999221801758
      ],
      "min": [
        0.004095000214874744,
        -0.19726499915122986
      ],
      "type": "VEC2"
    },
    {
      "bufferView": 0,
      "byteOffset": 17064,
      "componentType": 5125,
      "count": 288,
      "type": "SCALAR"
    },
    {
      "bufferView": 2,
      "byteOffset": 37392,
      "componentType": 5126,
      "count": 4,
      "max": [
        2.0584299564361572,
        0.01179799996316433,
        1.8617700338363647
      ],
      "min": [
        -2.0584299564361572,
        0.01179799996316433,
        -1.6686400175094604
      ],
      "type": "VEC3"
    },
    {
      "bufferView": 2,
      "byteOffset": 37440,
      "componentType": 5126,
      "count": 4,
      "max": [
        0.0,
        1.0,
        0.0
      ],
      "min": [
        0.0,
        1.0,
        0.0
      ],
      "type": "VEC3"
    },
    {
      "bufferView": 1,
      "byteOffset": 12464,
      "componentType": 5126,
      "count": 4,
      "max": [
        1.0,
        1.0
      ],
      "min": [
        0.0,
        0.0
      ],
      "type": "VEC2"
    },
    {
      "bufferView": 0,
      "byteOffset": 18216,
      "componentType": 5125,
      "count": 6,
      "type": "SCALAR"
    },
    {
      "bufferView": 2,
      "byteOffset": 37488,
      "componentType": 5126,
      "count": 4,
      "max": [
        2.0584299564361572,
        0.01179799996316433,
        1.8617700338363647
      ],
      "min": [
        -2.0584299564361572,
        0.01179799996316433,
        -1.6686400175094604
      ],
      "type": "VEC3"
    },
    {
      "bufferView": 2,
      "byteOffset": 37536,
      "componentType": 5126,
      "count": 4,
      "max": [
        0.0,
        1.0,
        0.0
      ],
      "min": [
        0.0,
        1.0,
        0.0
      ],
      "type": "VEC3"
    },
    {
      "bufferView": 1,
      "byteOffset": 12496,
      "componentType": 5126,
      "count": 4,
      "max": [
        1.0,
        1.0
      ],
      "min": [
        0.0,
        0.0
      ],
      "type": "VEC2"
    },
    {
      "bufferView": 0,
      "byteOffset": 18240,
      "componentType": 5125,
      "count": 6,
      "type": "SCALAR"
    },
    {
      "bufferView": 2,
      "byteOffset": 37584,
      "componentType": 5126,
      "count": 132,
      "max": [
        0.5215910077095032,
        2.269429922103882,
        0.3933280110359192
      ],
      "min": [
        -0.39181798696517944,
        0.6995319724082947,
        -0.4287889897823334
      ],
      "type": "VEC3"
    },
    {
      "bufferView": 2,
      "byteOffset": 39168,
      "componentType": 5126,
      "count": 132,
      "max": [
        0.8347370028495789,
        0.9998977780342102,
        0.9705716371536255
      ],
      "min": [
        -0.7266043424606323,
        -0.9064851403236389,
        -0.9446996450424194
      ],
      "type": "VEC3"
    },
    {
      "bufferView": 1,
      "byteOffset": 12528,
      "componentType": 5126,
      "count": 132,
      "max": [
        0.9487820267677307,
        22.365999221801758
      ],
      "min": [
        0.004095000214874744,
        -0.19726499915122986
      ],
      "type": "VEC2"
    },
    {
      "bufferView": 0,
      "byteOffset": 18264,
      "componentType": 5125,
      "count": 288,
      "type": "SCALAR"
    },
    {
      "bufferView": 2,
      "byteOffset": 40752,
      "componentType": 5126,
      "count": 23,
      "max": [
        0.880827009677887,
        0.4950299859046936,
        0.7706739902496338
      ],
      "min": [
        -0.880827009677887,
        0.0,
        -0.7628179788589478
      ],
      "type": "VEC3"
    },
    {
      "bufferView": 2,
      "byteOffset": 41028,
      "componentType": 5126,
      "count": 23,
      "max": [
        0.9819803833961487,
        1.0,
        1.0
      ],
      "min": [
        -0.9819803833961487,
        0.0,
        -0.9449111223220825
      ],
      "type": "VEC3"
    },
    {
      "bufferView": 1,
      "byteOffset": 13584,
      "componentType": 5126,
      "count": 23,
      "max": [
        0.9976300001144409,
        0.9007499814033508
      ],
      "min": [
        0.39957600831985474,
        0.004749000072479248
      ],
      "type": "VEC2"
    },
    {
      "bufferView": 0,
      "byteOffset": 19416,
      "componentType": 5125,
      "count": 60,
      "type": "SCALAR"
    },
    {
      "bufferView": 2,
      "byteOffset": 41304,
      "componentType": 5126,
      "count": 1403,
      "max": [
        1.5062401294708252,
        3.7578699588775635,
        1.0911600589752197
      ],
      "min": [
        -1.5121300220489502,
        0.5036560297012329,
        -1.124690055847168
      ],
      "type": "VEC3"
    },
    {
      "bufferView": 2,
      "byteOffset": 58140,
      "componentType": 5126,
      "count": 1403,
      "max": [
        0.9970294833183289,
        0.9999918937683105,
        0.9998928904533386
      ],
      "min": [
        -0.9970296025276184,
        -0.9999997615814209,
        -0.9999546408653259
      ],
      "type": "VEC3"
    },
    {
      "bufferView": 1,
      "byteOffset": 13768,
      "componentType": 5126,
      "count": 1403,
      "max": [
        1.0929900407791138,
        0.9964569807052612
      ],
      "min": [
        0.0008670000243000686,
        0.006537000183016062
      ],
      "type": "VEC2"
    },
    {
      "bufferView": 0,
      "byteOffset": 19656,
      "componentType": 5125,
      "count": 4206,
      "type": "SCALAR"
    }
  ],
  "asset": {
    "extras": {
      "author": "Tigerar1 (https://sketchfab.com/allanromanreyes)",
      "license": "SKETCHFAB Standard (https://sketchfab.com/licenses)",
      "source": "https://sketchfab.com/3d-models/hachune-miku-doll-1fbaa93dc8304d8189b244d7b467665b",
      "title": "Hachune Miku Doll"
    },
    "generator": "Sketchfab-16.16.0",
    "version": "2.0"
  },
  "bufferViews": [
    {
      "buffer": 0,
      "byteLength": 36480,
      "name": "floatBufferViews",
      "target": 34963
    },
    {
      "buffer": 0,
      "byteLength": 24992,
      "byteOffset": 36480,
      "byteStride": 8,
      "name": "floatBufferViews",
      "target": 34962
    },
    {
      "buffer": 0,
      "byteLength": 74976,
      "byteOffset": 61472,
      "byteStride": 12,
      "name": "floatBufferViews",
      "target": 34962
    }
  ],
  "buffers": [
    {
      "byteLength": 136448,
      "uri": "scene.bin"
    }
  ],
  "images": [
    {
      "uri": "textures/Mdl_0_Mtl_S013_all_baseColor.png"
    },
    {
      "uri": "textures/Mdl_0_Mtl_all_alpha_baseColor.png"
    },
    {
      "uri": "textures/Mdl_0_Mtl_test_lambert302_baseColor.png"
    }
  ],
  "materials": [
    {
      "doubleSided": true,
      "name": "Mdl_0_Mtl_S013_all",
      "pbrMetallicRoughness": {
        "baseColorTexture": {
          "index": 0
        },
        "metallicFactor": 0.0
      }
    },
    {
      "doubleSided": true,
      "name": "Mdl_0_Mtl_S013_all_0",
      "pbrMetallicRoughness": {
        "baseColorTexture": {
          "index": 0
        },
        "metallicFactor": 0.0
      }
    },
    {
      "doubleSided": true,
      "name": "Mdl_0_Mtl_all_alpha",
      "pbrMetallicRoughness": {
        "baseColorTexture": {
          "index": 1
        },
        "metallicFactor": 0.0
      }
    },
    {
      "doubleSided": true,
      "name": "Mdl_0_Mtl_test_lambert302",
      "pbrMetallicRoughness": {
        "baseColorTexture": {
          "index": 2
        },
        "metallicFactor": 0.0
      }
    }
  ],
  "meshes": [
    {
      "name": "Object_0",
      "primitives": [
        {
          "attributes": {
            "NORMAL": 1,
            "POSITION": 0,
            "TEXCOORD_0": 2
          },
          "indices": 3,
          "material": 0,
          "mode": 4
        }
      ]
    },
    {
      "name": "Object_1",
      "primitives": [
        {
          "attributes": {
            "NORMAL": 5,
            "POSITION": 4,
            "TEXCOORD_0": 6
          },
          "indices": 7,
          "material": 1,
          "mode": 4
        }
      ]
    },
    {
      "name": "Object_2",
      "primitives": [
        {
          "attributes": {
            "NORMAL": 9,
            "POSITION": 8,
            "TEXCOORD_0": 10
          },
          "indices": 11,
          "material": 2,
          "mode": 4
        }
      ]
    },
    {
      "name": "Object_3",
      "primitives": [
        {
          "attributes": {
            "NORMAL": 13,
            "POSITION": 12,
            "TEXCOORD_0": 14
          },
          "indices": 15,
          "material": 3,
          "mode": 4
        }
      ]
    },
    {
      "name": "Object_4",
      "primitives": [
        {
          "attributes": {
            "NORMAL": 17,
            "POSITION": 16,
            "TEXCOORD_0": 18
          },
          "indices": 19,
          "material": 3,
          "mode": 4
        }
      ]
    },
    {
      "name": "Object_5",
      "primitives": [
        {
          "attributes": {
            "NORMAL": 21,
            "POSITION": 20,
            "TEXCOORD_0": 22
          },
          "indices": 23,
          "material": 2,
          "mode": 4
        }
      ]
    },
    {
      "name": "Object_6",
      "primitives": [
        {
          "attributes": {
            "NORMAL": 25,
            "POSITION": 24,
            "TEXCOORD_0": 26
          },
          "indices": 27,
          "material": 1,
          "mode": 4
        }
      ]
    },
    {
      "name": "Object_7",
      "primitives": [
        {
          "attributes": {
            "NORMAL": 29,
            "POSITION": 28,
            "TEXCOORD_0": 30
          },
          "indices": 31,
          "material": 0,
          "mode": 4
        }
      ]
    }
  ],
  "nodes": [
    {
      "children": [
        1
      ],
      "matrix": [
        1.0,
        0.0,
        0.0,
        0.0,
        0.0,
        2.220446049250313e-16,
        -1.0,
        0.0,
        0.0,
        1.0,
        2.220446049250313e-16,
        0.0,
        0.0,
        0.0,
        0.0,
        1.0
      ],
      "name": "Sketchfab_model"
    },
    {
      "children": [
        2
      ],
      "matrix": [
        1.0,
        0.0,
        0.0,
        0.0,
        0.0,
        -4.371139006309477e-08,
        0.999999999999999,
        0.0,
        0.0,
        -0.999999999999999,
        -4.371139006309477e-08,
        0.0,
        0.0,
        0.0,
        0.0,
        1.0
      ],
      "name": "Collada visual scene group"
    },
    {
      "children": [
        3,
        4,
        5,
        6,
        7,
        8,
        9,
        10
      ],
      "name": "Object_2"
    },
    {
      "mesh": 0,
      "name": "Object_3"
    },
    {
      "mesh": 1,
      "name": "Object_4"
    },
    {
      "mesh": 2,
      "name": "Object_5"
    },
    {
      "mesh": 3,
      "name": "Object_6"
    },
    {
      "mesh": 4,
      "name": "Object_7"
    },
    {
      "mesh": 5,
      "name": "Object_8"
    },
    {
      "mesh": 6,
      "name": "Object_9"
    },
    {
      "mesh": 7,
      "name": "Object_10"
    }
  ],
  "samplers": [
    {
      "magFilter": 9729,
      "minFilter": 9987,
      "wrapS": 10497,
      "wrapT": 10497
    }
  ],
  "scene": 0,
  "scenes": [
    {
      "name": "Sketchfab_Scene",
      "nodes": [
        0
      ]
    }
  ],
  "textures": [
    {
      "sampler": 0,
      "source": 0
    },
    {
      "sampler": 0,
      "source": 1
    },
    {
      "sampler": 0,
      "source": 2
    }
  ]
}
